<svg width="24" height="24" viewBox="0 0 24 24" fill="none" xmlns="http://www.w3.org/2000/svg">
<rect width="24" height="24" fill="white"/>
<path d="M12.44 13.11L12.27 13C12.0869 12.9247 11.8856 12.9054 11.6916 12.9445C11.4976 12.9837 11.3195 13.0796 11.18 13.22C11.0835 13.3087 11.0083 13.4181 10.96 13.54C10.9075 13.6633 10.8803 13.796 10.88 13.93C10.8816 14.0607 10.9088 14.1898 10.96 14.31C11.0675 14.5503 11.2597 14.7426 11.5 14.85C11.6202 14.9012 11.7493 14.9284 11.88 14.93C12.0138 14.9275 12.146 14.9004 12.27 14.85C12.39 14.7983 12.4987 14.7235 12.59 14.63C12.7763 14.4426 12.8808 14.1892 12.8808 13.925C12.8808 13.6608 12.7763 13.4074 12.59 13.22L12.44 13.11ZM11.88 6.00001C11.4029 5.99464 10.9325 6.11351 10.5153 6.34495C10.098 6.57638 9.7481 6.91241 9.5 7.32001C9.42765 7.43382 9.37907 7.5611 9.35718 7.69418C9.33529 7.82726 9.34055 7.9634 9.37263 8.09439C9.40472 8.22539 9.46297 8.34854 9.54389 8.45644C9.6248 8.56434 9.72671 8.65476 9.84347 8.72225C9.96024 8.78974 10.0895 8.83292 10.2233 8.84918C10.3572 8.86545 10.493 8.85446 10.6225 8.81688C10.7521 8.77931 10.8727 8.71592 10.9771 8.63053C11.0814 8.54514 11.1675 8.43951 11.23 8.32001C11.3038 8.21743 11.4017 8.13459 11.515 8.07878C11.6284 8.02298 11.7537 7.99592 11.88 8.00001C12.0789 8.00001 12.2697 8.07902 12.4103 8.21968C12.551 8.36033 12.63 8.55109 12.63 8.75001C12.63 8.94892 12.551 9.13968 12.4103 9.28034C12.2697 9.42099 12.0789 9.50001 11.88 9.50001C11.6148 9.50001 11.3604 9.60536 11.1729 9.7929C10.9854 9.98044 10.88 10.2348 10.88 10.5C10.88 10.7652 10.9854 11.0196 11.1729 11.2071C11.3604 11.3946 11.6148 11.5 11.88 11.5C12.6093 11.5 13.3088 11.2103 13.8245 10.6945C14.3403 10.1788 14.63 9.47935 14.63 8.75001C14.63 8.02066 14.3403 7.32119 13.8245 6.80546C13.3088 6.28974 12.6093 6.00001 11.88 6.00001ZM20.46 9.68001C20.3274 8.21461 19.8167 6.80874 18.9778 5.59991C18.139 4.39109 17.0007 3.42072 15.6743 2.78375C14.348 2.14678 12.879 1.86501 11.4111 1.96602C9.94316 2.06703 8.52661 2.54736 7.3 3.36001C6.2492 4.06265 5.36706 4.9893 4.71695 6.0734C4.06684 7.15749 3.6649 8.37211 3.54 9.63001C3.41749 10.8797 3.57468 12.1409 4.00017 13.3223C4.42567 14.5036 5.1088 15.5755 6 16.46L11.3 21.77C11.393 21.8637 11.5036 21.9381 11.6254 21.9889C11.7473 22.0397 11.878 22.0658 12.01 22.0658C12.142 22.0658 12.2727 22.0397 12.3946 21.9889C12.5164 21.9381 12.627 21.8637 12.72 21.77L18 16.46C18.8912 15.5755 19.5743 14.5036 19.9998 13.3223C20.4253 12.1409 20.5825 10.8797 20.46 9.63001V9.68001ZM16.6 15.05L12 19.65L7.4 15.05C6.72209 14.3721 6.20281 13.5523 5.87947 12.6498C5.55614 11.7472 5.43679 10.7842 5.53 9.83001C5.62382 8.86111 5.93177 7.92517 6.43157 7.08985C6.93138 6.25453 7.61056 5.54071 8.42 5.00001C9.48095 4.29524 10.7263 3.9193 12 3.9193C13.2737 3.9193 14.5191 4.29524 15.58 5.00001C16.387 5.53862 17.0647 6.24929 17.5644 7.08094C18.064 7.9126 18.3733 8.84461 18.47 9.81001C18.5663 10.7674 18.4484 11.7343 18.125 12.6406C17.8016 13.5468 17.2807 14.3698 16.6 15.05Z" fill="#1F1F1F"/>
</svg>
