<svg width="24" height="24" viewBox="0 0 24 24" fill="none" xmlns="http://www.w3.org/2000/svg">
<rect width="24" height="24" fill="white"/>
<path d="M16.37 12.79C16.2479 12.7414 16.1174 12.7174 15.9859 12.7192C15.8545 12.721 15.7247 12.7488 15.604 12.8008C15.4833 12.8528 15.374 12.928 15.2824 13.0223C15.1908 13.1165 15.1186 13.2279 15.07 13.35C15.0214 13.4721 14.9974 13.6026 14.9992 13.7341C15.001 13.8655 15.0288 13.9953 15.0808 14.116C15.1328 14.2367 15.208 14.346 15.3023 14.4376C15.3965 14.5292 15.5079 14.6014 15.63 14.65C17.09 15.23 18 16.13 18 17C18 18.42 15.54 20 12 20C8.46 20 6 18.42 6 17C6 16.13 6.91 15.23 8.37 14.65C8.61665 14.5519 8.81422 14.3598 8.91924 14.116C9.02426 13.8722 9.02813 13.5967 8.93 13.35C8.83187 13.1033 8.63978 12.9058 8.39598 12.8008C8.15218 12.6957 7.87665 12.6919 7.63 12.79C5.36 13.69 4 15.26 4 17C4 19.8 7.51 22 12 22C16.49 22 20 19.8 20 17C20 15.26 18.64 13.69 16.37 12.79ZM11 9.86V17C11 17.2652 11.1054 17.5196 11.2929 17.7071C11.4804 17.8946 11.7348 18 12 18C12.2652 18 12.5196 17.8946 12.7071 17.7071C12.8946 17.5196 13 17.2652 13 17V9.86C13.9427 9.6166 14.7642 9.03777 15.3106 8.23199C15.857 7.42621 16.0908 6.44881 15.9681 5.483C15.8454 4.51718 15.3747 3.62926 14.6442 2.98568C13.9137 2.34209 12.9736 1.98701 12 1.98701C11.0264 1.98701 10.0863 2.34209 9.35577 2.98568C8.62526 3.62926 8.15456 4.51718 8.03188 5.483C7.90921 6.44881 8.14299 7.42621 8.6894 8.23199C9.23581 9.03777 10.0573 9.6166 11 9.86ZM12 4C12.3956 4 12.7822 4.1173 13.1111 4.33706C13.44 4.55682 13.6964 4.86918 13.8478 5.23463C13.9991 5.60008 14.0387 6.00222 13.9616 6.39018C13.8844 6.77814 13.6939 7.13451 13.4142 7.41421C13.1345 7.69392 12.7781 7.8844 12.3902 7.96157C12.0022 8.03874 11.6001 7.99913 11.2346 7.84776C10.8692 7.69638 10.5568 7.44004 10.3371 7.11114C10.1173 6.78224 10 6.39556 10 6C10 5.46957 10.2107 4.96086 10.5858 4.58578C10.9609 4.21071 11.4696 4 12 4Z" fill="#1F1F1F"/>
</svg>
