<svg width="24" height="24" viewBox="0 0 24 24" fill="none" xmlns="http://www.w3.org/2000/svg">
<rect width="24" height="24" fill="white"/>
<path d="M21.68 17.65L14.68 3.65C14.4302 3.1534 14.0473 2.73598 13.5741 2.44431C13.1009 2.15264 12.5559 1.99818 12 1.99818C11.4441 1.99818 10.8992 2.15264 10.4259 2.44431C9.9527 2.73598 9.56982 3.1534 9.32001 3.65L2.32001 17.65C2.04502 18.2025 1.94712 18.8264 2.03966 19.4366C2.1322 20.0467 2.41068 20.6135 2.83712 21.0597C3.26357 21.5058 3.81723 21.8095 4.42262 21.9295C5.02801 22.0495 5.65566 21.9798 6.22001 21.73L11.59 19.33C11.7198 19.2755 11.8592 19.2475 12 19.2475C12.1408 19.2475 12.2802 19.2755 12.41 19.33L17.78 21.73C18.3444 21.9798 18.972 22.0495 19.5774 21.9295C20.1828 21.8095 20.7364 21.5058 21.1629 21.0597C21.5893 20.6135 21.8678 20.0467 21.9604 19.4366C22.0529 18.8264 21.955 18.2025 21.68 17.65ZM19.68 19.65C19.5373 19.7986 19.3521 19.8995 19.1498 19.9389C18.9476 19.9783 18.7381 19.9542 18.55 19.87L13.18 17.48C12.796 17.3091 12.3803 17.2207 11.96 17.2207C11.5397 17.2207 11.124 17.3091 10.74 17.48L5.41001 19.9C5.22297 19.9813 5.01556 20.0034 4.81558 19.9635C4.6156 19.9235 4.43261 19.8234 4.29115 19.6765C4.1497 19.5296 4.05654 19.343 4.02416 19.1416C3.99178 18.9403 4.02174 18.7338 4.11001 18.55L11.11 4.55C11.1939 4.3862 11.3214 4.24873 11.4785 4.15274C11.6355 4.05675 11.816 4.00596 12 4.00596C12.1841 4.00596 12.3645 4.05675 12.5216 4.15274C12.6786 4.24873 12.8061 4.3862 12.89 4.55L19.89 18.55C19.9805 18.7332 20.0127 18.9397 19.9823 19.1417C19.9519 19.3437 19.8604 19.5316 19.72 19.68L19.68 19.65Z" fill="#1F1F1F"/>
</svg>
