<svg width="24" height="24" viewBox="0 0 24 24" fill="none" xmlns="http://www.w3.org/2000/svg">
<rect width="24" height="24" fill="white"/>
<path d="M21.15 2.85999C20.7679 2.47056 20.2835 2.19721 19.7526 2.07157C19.2217 1.94593 18.6661 1.97312 18.15 2.14999L3.99999 6.87999C3.4293 7.0668 2.93068 7.42614 2.57294 7.90843C2.21521 8.39072 2.016 8.97216 2.00283 9.5725C1.98966 10.1728 2.16318 10.7625 2.49942 11.26C2.83566 11.7575 3.31804 12.1383 3.87999 12.35L9.11999 14.35C9.23931 14.3956 9.34795 14.4653 9.43913 14.5548C9.53032 14.6443 9.6021 14.7516 9.64999 14.87L11.65 20.12C11.8536 20.674 12.223 21.1517 12.708 21.4882C13.1929 21.8246 13.7698 22.0033 14.36 22H14.43C15.031 21.9891 15.6135 21.7903 16.0959 21.4317C16.5783 21.073 16.9364 20.5724 17.12 20L21.85 5.82999C22.022 5.31893 22.0476 4.76994 21.9239 4.24508C21.8002 3.72022 21.5321 3.24045 21.15 2.85999ZM20 5.19999L15.22 19.38C15.1645 19.5595 15.053 19.7165 14.9019 19.828C14.7507 19.9396 14.5678 19.9998 14.38 20C14.1932 20.0031 14.01 19.9492 13.8546 19.8456C13.6992 19.742 13.579 19.5936 13.51 19.42L11.51 14.17C11.365 13.7885 11.1414 13.4418 10.8537 13.1524C10.566 12.8629 10.2206 12.6373 9.83999 12.49L4.58999 10.49C4.41288 10.4251 4.26064 10.3062 4.15477 10.1501C4.0489 9.99397 3.99476 9.80855 3.99999 9.61999C4.00014 9.43214 4.0604 9.24926 4.17196 9.09812C4.28352 8.94698 4.44052 8.8355 4.61999 8.77999L18.8 4.04999C18.9628 3.98364 19.1413 3.96587 19.314 3.99882C19.4867 4.03177 19.6462 4.11404 19.7731 4.23568C19.9 4.35732 19.989 4.51312 20.0293 4.68426C20.0695 4.85539 20.0594 5.03452 20 5.19999Z" fill="#1F1F1F"/>
</svg>
