<svg width="24" height="24" viewBox="0 0 24 24" fill="none" xmlns="http://www.w3.org/2000/svg">
<rect width="24" height="24" fill="white"/>
<path d="M21.38 5.75999C21.3458 5.6323 21.2867 5.51264 21.206 5.40794C21.1254 5.30324 21.0247 5.21556 20.91 5.14999L15.71 2.14999C15.5964 2.08346 15.4709 2.03999 15.3405 2.02208C15.2101 2.00417 15.0775 2.01216 14.9502 2.04561C14.823 2.07905 14.7035 2.13729 14.5988 2.21698C14.4941 2.29667 14.4061 2.39624 14.34 2.50999L12 6.56999L9.65997 2.50999C9.59381 2.39624 9.50584 2.29667 9.40112 2.21698C9.2964 2.13729 9.17698 2.07905 9.0497 2.04561C8.92243 2.01216 8.7898 2.00417 8.65943 2.02208C8.52906 2.03999 8.40351 2.08346 8.28997 2.14999L3.08997 5.14999C2.9752 5.21556 2.87457 5.30324 2.7939 5.40794C2.71323 5.51264 2.65411 5.6323 2.61997 5.75999C2.55379 6.01344 2.58969 6.28274 2.71997 6.50999L6.71997 13.34C6.27372 14.1575 6.02701 15.069 5.99997 16C5.99759 16.9083 6.20145 17.8053 6.59619 18.6233C6.99093 19.4413 7.56623 20.159 8.27873 20.7224C8.99122 21.2857 9.82232 21.6799 10.7093 21.8753C11.5964 22.0706 12.5162 22.0621 13.3994 21.8502C14.2826 21.6384 15.1063 21.2288 15.8081 20.6523C16.51 20.0758 17.0719 19.3475 17.4513 18.5222C17.8308 17.697 18.0179 16.7964 17.9986 15.8883C17.9793 14.9802 17.7541 14.0884 17.34 13.28L21.24 6.51999C21.3126 6.40894 21.3623 6.28454 21.3864 6.15406C21.4104 6.02359 21.4082 5.88963 21.38 5.75999ZM4.99997 6.37999L8.45997 4.37999L11.68 9.99999C10.3074 10.0848 9.00676 10.6432 7.99997 11.58L4.99997 6.37999ZM12 20C10.9391 20 9.92169 19.5786 9.17154 18.8284C8.4214 18.0783 7.99997 17.0609 7.99997 16C7.99997 14.9391 8.4214 13.9217 9.17154 13.1716C9.92169 12.4214 10.9391 12 12 12C13.0608 12 14.0783 12.4214 14.8284 13.1716C15.5785 13.9217 16 14.9391 16 16C16 17.0609 15.5785 18.0783 14.8284 18.8284C14.0783 19.5786 13.0608 20 12 20ZM16 11.55C15.457 11.0541 14.8262 10.6641 14.14 10.4L13.16 8.56999L15.58 4.37999L19.04 6.37999L16 11.55Z" fill="#1F1F1F"/>
</svg>
