<svg width="24" height="24" viewBox="0 0 24 24" fill="none" xmlns="http://www.w3.org/2000/svg">
<rect width="24" height="24" fill="white"/>
<path d="M21 8.00001C20.9965 7.61677 20.8829 7.24261 20.6728 6.92206C20.4628 6.60151 20.165 6.34807 19.815 6.1919C19.465 6.03573 19.0775 5.98341 18.6987 6.04117C18.3198 6.09893 17.9655 6.26433 17.6779 6.51769C17.3904 6.77105 17.1816 7.1017 17.0766 7.47028C16.9716 7.83886 16.9747 8.22986 17.0855 8.59674C17.1964 8.96362 17.4103 9.29092 17.7018 9.5397C17.9934 9.78848 18.3502 9.94825 18.73 10C18.9401 10.58 19.0284 11.197 18.9895 11.8127C18.9506 12.4283 18.7852 13.0293 18.5037 13.5782C18.2223 14.1271 17.8307 14.6121 17.3535 15.003C16.8762 15.3939 16.3236 15.6822 15.73 15.85C15.4663 15.243 15.0092 14.7402 14.43 14.42C15.2588 13.3917 15.7798 12.1499 15.9329 10.838C16.0859 9.52619 15.8646 8.19782 15.2947 7.00637C14.7247 5.81493 13.8293 4.80904 12.7119 4.1049C11.5945 3.40077 10.3007 3.02711 8.97998 3.02711C7.65924 3.02711 6.36543 3.40077 5.24804 4.1049C4.13065 4.80904 3.23526 5.81493 2.66531 7.00637C2.09536 8.19782 1.87411 9.52619 2.02712 10.838C2.18012 12.1499 2.70114 13.3917 3.52998 14.42C3.07098 14.678 2.68796 15.0522 2.41939 15.5051C2.15082 15.9579 2.00618 16.4735 1.99998 17V18C1.99998 18.7957 2.31606 19.5587 2.87866 20.1213C3.44127 20.6839 4.20433 21 4.99998 21H13C13.7956 21 14.5587 20.6839 15.1213 20.1213C15.6839 19.5587 16 18.7957 16 18V17.81C16.8976 17.6004 17.74 17.2014 18.4709 16.6398C19.2017 16.0782 19.8042 15.3669 20.2378 14.5535C20.6715 13.7402 20.9263 12.8436 20.9853 11.9238C21.0444 11.0039 20.9062 10.0821 20.58 9.22001C20.8509 8.87091 20.9986 8.44191 21 8.00001ZM14 18C14 18.2652 13.8946 18.5196 13.7071 18.7071C13.5196 18.8947 13.2652 19 13 19H4.99998C4.73477 19 4.48041 18.8947 4.29288 18.7071C4.10534 18.5196 3.99998 18.2652 3.99998 18V17C3.99998 16.7348 4.10534 16.4804 4.29288 16.2929C4.48041 16.1054 4.73477 16 4.99998 16H5.40998C6.49303 16.6546 7.73446 17.0007 8.99998 17.0007C10.2655 17.0007 11.5069 16.6546 12.59 16H13C13.2652 16 13.5196 16.1054 13.7071 16.2929C13.8946 16.4804 14 16.7348 14 17V18ZM8.99998 15C8.01108 15 7.04438 14.7068 6.22213 14.1574C5.39989 13.6079 4.75903 12.8271 4.38059 11.9134C4.00215 10.9998 3.90313 9.99446 4.09606 9.02456C4.28898 8.05465 4.76519 7.16374 5.46445 6.46447C6.16371 5.76521 7.05463 5.28901 8.02453 5.09608C8.99444 4.90315 9.99977 5.00217 10.9134 5.38061C11.827 5.75905 12.6079 6.39991 13.1573 7.22216C13.7067 8.0444 14 9.0111 14 10C14 10.6566 13.8707 11.3068 13.6194 11.9134C13.3681 12.5201 12.9998 13.0712 12.5355 13.5355C12.0712 13.9998 11.52 14.3681 10.9134 14.6194C10.3068 14.8707 9.65659 15 8.99998 15ZM8.99998 9.00001C8.8022 9.00001 8.60886 9.05866 8.44441 9.16854C8.27996 9.27842 8.15179 9.4346 8.07611 9.61732C8.00042 9.80005 7.98061 10.0011 8.0192 10.1951C8.05778 10.3891 8.15303 10.5673 8.29288 10.7071C8.43273 10.847 8.61091 10.9422 8.80489 10.9808C8.99888 11.0194 9.19994 10.9996 9.38267 10.9239C9.56539 10.8482 9.72157 10.72 9.83145 10.5556C9.94134 10.3911 9.99998 10.1978 9.99998 10C9.99998 9.73479 9.89463 9.48044 9.70709 9.2929C9.51956 9.10536 9.2652 9.00001 8.99998 9.00001Z" fill="#1F1F1F"/>
</svg>
