<svg width="24" height="24" viewBox="0 0 24 24" fill="none" xmlns="http://www.w3.org/2000/svg">
<rect width="24" height="24" fill="white"/>
<path d="M13.29 13.79L13 14.09V11.5C13 11.2348 12.8946 10.9804 12.7071 10.7929C12.5196 10.6054 12.2652 10.5 12 10.5C11.7348 10.5 11.4804 10.6054 11.2929 10.7929C11.1054 10.9804 11 11.2348 11 11.5V14.09L10.71 13.79C10.5217 13.6017 10.2663 13.4959 10 13.4959C9.7337 13.4959 9.4783 13.6017 9.29 13.79C9.1017 13.9783 8.99591 14.2337 8.99591 14.5C8.99591 14.7663 9.1017 15.0217 9.29 15.21L11.29 17.21C11.3851 17.301 11.4972 17.3724 11.62 17.42C11.7397 17.4729 11.8691 17.5002 12 17.5002C12.1309 17.5002 12.2603 17.4729 12.38 17.42C12.5028 17.3724 12.6149 17.301 12.71 17.21L14.71 15.21C14.8983 15.0217 15.0041 14.7663 15.0041 14.5C15.0041 14.2337 14.8983 13.9783 14.71 13.79C14.5217 13.6017 14.2663 13.4959 14 13.4959C13.7337 13.4959 13.4783 13.6017 13.29 13.79ZM19 5.5H12.72L12.4 4.5C12.1926 3.91323 11.8077 3.4055 11.2989 3.04716C10.7901 2.68882 10.1824 2.4976 9.56 2.5H5C4.20435 2.5 3.44129 2.81607 2.87868 3.37868C2.31607 3.94129 2 4.70435 2 5.5V18.5C2 19.2956 2.31607 20.0587 2.87868 20.6213C3.44129 21.1839 4.20435 21.5 5 21.5H19C19.7956 21.5 20.5587 21.1839 21.1213 20.6213C21.6839 20.0587 22 19.2956 22 18.5V8.5C22 7.70435 21.6839 6.94129 21.1213 6.37868C20.5587 5.81607 19.7956 5.5 19 5.5ZM20 18.5C20 18.7652 19.8946 19.0196 19.7071 19.2071C19.5196 19.3946 19.2652 19.5 19 19.5H5C4.73478 19.5 4.48043 19.3946 4.29289 19.2071C4.10536 19.0196 4 18.7652 4 18.5V5.5C4 5.23478 4.10536 4.98043 4.29289 4.79289C4.48043 4.60536 4.73478 4.5 5 4.5H9.56C9.76964 4.49946 9.97416 4.56482 10.1446 4.68684C10.3151 4.80886 10.4429 4.98138 10.51 5.18L11.05 6.82C11.1171 7.01862 11.2449 7.19113 11.4154 7.31316C11.5858 7.43518 11.7904 7.50054 12 7.5H19C19.2652 7.5 19.5196 7.60536 19.7071 7.79289C19.8946 7.98043 20 8.23478 20 8.5V18.5Z" fill="#1F1F1F"/>
</svg>
