<svg width="24" height="24" viewBox="0 0 24 24" fill="none" xmlns="http://www.w3.org/2000/svg">
<rect width="24" height="24" fill="white"/>
<path d="M13.5 12.5C13.5 12.2348 13.3946 11.9804 13.2071 11.7929C13.0196 11.6054 12.7652 11.5 12.5 11.5H7.5C7.23478 11.5 6.98043 11.6054 6.79289 11.7929C6.60536 11.9804 6.5 12.2348 6.5 12.5C6.5 12.7652 6.60536 13.0196 6.79289 13.2071C6.98043 13.3946 7.23478 13.5 7.5 13.5H12.5C12.7652 13.5 13.0196 13.3946 13.2071 13.2071C13.3946 13.0196 13.5 12.7652 13.5 12.5ZM18.5 17.5C18.0752 17.5014 17.6619 17.638 17.32 17.89L15.57 17.09L17.48 16.21C17.7819 16.3933 18.1269 16.4933 18.48 16.5C18.8756 16.5 19.2622 16.3827 19.5911 16.1629C19.92 15.9432 20.1764 15.6308 20.3278 15.2654C20.4791 14.8999 20.5187 14.4978 20.4416 14.1098C20.3644 13.7219 20.1739 13.3655 19.8942 13.0858C19.6145 12.8061 19.2581 12.6156 18.8702 12.5384C18.4822 12.4613 18.0801 12.5009 17.7146 12.6522C17.3492 12.8036 17.0368 13.06 16.8171 13.3889C16.5973 13.7178 16.48 14.1044 16.48 14.5L14.59 15.37C14.331 15.1863 14.0321 15.0668 13.7178 15.0216C13.4035 14.9763 13.083 15.0065 12.7827 15.1097C12.4824 15.2129 12.211 15.3861 11.991 15.615C11.7709 15.8439 11.6085 16.1219 11.5172 16.426C11.4259 16.7301 11.4083 17.0515 11.4658 17.3638C11.5234 17.676 11.6545 17.9701 11.8483 18.2216C12.042 18.4732 12.2929 18.675 12.5801 18.8103C12.8673 18.9457 13.1827 19.0107 13.5 19C13.8222 19.0001 14.139 18.9175 14.42 18.76L16.52 19.76C16.5643 20.1426 16.7182 20.5043 16.9631 20.8016C17.208 21.0989 17.5335 21.3192 17.9006 21.4359C18.2677 21.5526 18.6607 21.5609 19.0323 21.4597C19.4039 21.3584 19.7385 21.1521 19.9956 20.8653C20.2528 20.5785 20.4217 20.2236 20.482 19.8432C20.5424 19.4628 20.4916 19.073 20.3357 18.7208C20.1799 18.3685 19.9256 18.0688 19.6035 17.8575C19.2814 17.6463 18.9052 17.5326 18.52 17.53L18.5 17.5ZM10.5 19.5H5.5C5.23478 19.5 4.98043 19.3946 4.79289 19.2071C4.60536 19.0196 4.5 18.7652 4.5 18.5V4.5C4.5 4.23478 4.60536 3.98043 4.79289 3.79289C4.98043 3.60536 5.23478 3.5 5.5 3.5H10.5V6.5C10.5 7.29565 10.8161 8.05871 11.3787 8.62132C11.9413 9.18393 12.7044 9.5 13.5 9.5H16.5C16.5 9.76522 16.6054 10.0196 16.7929 10.2071C16.9804 10.3946 17.2348 10.5 17.5 10.5C17.7652 10.5 18.0196 10.3946 18.2071 10.2071C18.3946 10.0196 18.5 9.76522 18.5 9.5V8.5C18.5 8.5 18.5 8.5 18.5 8.44C18.4896 8.34813 18.4695 8.25763 18.44 8.17V8.08C18.3919 7.97718 18.3278 7.88267 18.25 7.8L12.25 1.8C12.1673 1.72222 12.0728 1.65808 11.97 1.61C11.9369 1.60421 11.9031 1.60421 11.87 1.61C11.7861 1.57952 11.6988 1.55938 11.61 1.55H5.5C4.70435 1.55 3.94129 1.86607 3.37868 2.42868C2.81607 2.99129 2.5 3.75435 2.5 4.55V18.55C2.5 19.3456 2.81607 20.1087 3.37868 20.6713C3.94129 21.2339 4.70435 21.55 5.5 21.55H10.5C10.7652 21.55 11.0196 21.4446 11.2071 21.2571C11.3946 21.0696 11.5 20.8152 11.5 20.55C11.5 20.2848 11.3946 20.0304 11.2071 19.8429C11.0196 19.6554 10.7652 19.55 10.5 19.55V19.5ZM12.5 4.91L15.09 7.5H13.5C13.2348 7.5 12.9804 7.39464 12.7929 7.20711C12.6054 7.01957 12.5 6.76522 12.5 6.5V4.91ZM7.5 15.5C7.23478 15.5 6.98043 15.6054 6.79289 15.7929C6.60536 15.9804 6.5 16.2348 6.5 16.5C6.5 16.7652 6.60536 17.0196 6.79289 17.2071C6.98043 17.3946 7.23478 17.5 7.5 17.5H8.5C8.76522 17.5 9.01957 17.3946 9.20711 17.2071C9.39464 17.0196 9.5 16.7652 9.5 16.5C9.5 16.2348 9.39464 15.9804 9.20711 15.7929C9.01957 15.6054 8.76522 15.5 8.5 15.5H7.5ZM7.5 9.5H8.5C8.76522 9.5 9.01957 9.39464 9.20711 9.20711C9.39464 9.01957 9.5 8.76522 9.5 8.5C9.5 8.23478 9.39464 7.98043 9.20711 7.79289C9.01957 7.60536 8.76522 7.5 8.5 7.5H7.5C7.23478 7.5 6.98043 7.60536 6.79289 7.79289C6.60536 7.98043 6.5 8.23478 6.5 8.5C6.5 8.76522 6.60536 9.01957 6.79289 9.20711C6.98043 9.39464 7.23478 9.5 7.5 9.5Z" fill="#1F1F1F"/>
</svg>
