<svg width="256" height="46" viewBox="0 0 256 46" fill="none" xmlns="http://www.w3.org/2000/svg">
<path fill-rule="evenodd" clip-rule="evenodd" d="M52.3945 6.10254C53.5083 7.39673 54.4858 8.80826 55.3063 10.313H26.4196C26.5592 8.88764 26.9363 7.47266 27.5019 6.10254H52.3945ZM57.1043 14.5234C57.5337 15.8797 57.8479 17.2878 58.0294 18.7338H29.5198C28.5458 17.2705 27.631 15.897 27.041 14.5234H57.1043ZM58.1935 22.9443C58.1237 24.3834 57.9247 25.7915 57.6105 27.1547H33.6709C33.3218 25.6258 32.7597 24.235 32.0964 22.9443H58.1935ZM56.214 31.3686C55.5611 32.856 54.7651 34.2641 53.8364 35.579H32.5153C33.3078 34.202 33.842 32.787 33.9991 31.3686H56.214ZM50.0659 39.7894C48.1003 41.5288 45.8519 42.9576 43.3941 43.9999H25.1802V43.565C26.6011 42.3985 28.0151 41.1285 29.2824 39.7894H50.0659Z" fill="url(#paint0_linear_1_1228)"/>
<path fill-rule="evenodd" clip-rule="evenodd" d="M19.2835 39.8973C17.8696 38.6445 16.6022 37.2296 15.513 35.6869H38.3772C37.5393 37.1398 36.4186 38.5548 35.1478 39.8973H19.2835ZM13.1354 31.4765C12.5454 30.1305 12.0776 28.7224 11.7389 27.266H39.5293C39.7702 28.3152 39.9064 29.4299 39.9064 30.6275C39.9064 30.9105 39.8889 31.1935 39.8575 31.4799H13.1354V31.4765ZM11.1559 23.0556C11.1384 22.6622 11.1279 22.2687 11.1279 21.8753C11.1279 20.8503 11.1943 19.8391 11.3199 18.8452H35.3782C36.1533 20.0117 36.9702 21.2334 37.6929 22.5621V23.0556H11.1559ZM12.2451 14.6313C12.7095 13.1611 13.3135 11.753 14.0431 10.4209H32.2815C32.2396 10.8315 32.2221 11.2422 32.2221 11.6529C32.2221 12.671 32.4805 13.6512 32.9029 14.6313H12.2451ZM16.9548 6.21043C18.3269 4.61599 19.905 3.19756 21.6506 2H35.7518C34.7777 3.33215 33.9643 4.74713 33.3603 6.21043H16.9548Z" fill="#00487F"/>
<path d="M97.3594 28.3697C97.3594 29.8571 97.0871 31.1996 96.5389 32.3972C95.9908 33.5947 95.2158 34.6128 94.2068 35.4446C93.1978 36.2797 91.9759 36.9217 90.541 37.3772C89.1061 37.8328 87.5001 38.0605 85.723 38.0605C82.8881 38.0605 80.3569 37.6568 78.1365 36.8561C75.9161 36.052 74.0866 35.134 72.6517 34.1021L76.9076 30.3265C78.0353 31.2376 79.2991 31.9347 80.6991 32.4179C81.5544 32.7216 82.3574 32.9183 83.1081 33.008C83.8587 33.0978 84.4731 33.1461 84.9549 33.1461C85.8417 33.1461 86.6552 33.0494 87.3883 32.8493C88.1215 32.6526 88.7639 32.3868 89.312 32.0521C90.4746 31.2928 91.0542 30.292 91.0542 29.0495C91.0542 28.2903 90.7469 27.6104 90.1325 27.003C89.6542 26.5164 89.0397 26.1229 88.2856 25.8192C87.6711 25.5155 87.0218 25.274 86.3375 25.091C85.6532 24.9081 85.0387 24.7425 84.4906 24.5906C84.3195 24.5319 84.1659 24.494 84.0298 24.4767C83.8936 24.4629 83.7749 24.425 83.6702 24.3628C83.6003 24.3628 83.4991 24.3318 83.3629 24.2731C82.6437 24.0902 81.6103 23.7727 80.2627 23.3171C78.9116 22.8616 77.5709 22.2404 76.2407 21.4501C73.13 19.6002 71.5764 17.3259 71.5764 14.6236C71.5764 12.8359 71.9255 11.3243 72.6273 10.0957C73.3255 8.86708 74.2402 7.86624 75.3679 7.09317C76.4956 6.32011 77.7525 5.76792 79.135 5.43316C80.5175 5.0984 81.8756 4.93274 83.2093 4.93274C85.6706 4.93274 87.7375 5.19158 89.4098 5.7058C91.0821 6.22348 92.4158 6.7377 93.4073 7.25193C93.9205 7.52457 94.3569 7.79031 94.713 8.04915C95.0726 8.30799 95.3868 8.54267 95.6626 8.75319L91.3055 12.6668C90.3838 11.8489 89.4412 11.2277 88.4881 10.7997C87.0532 10.1923 85.5485 9.88862 83.9774 9.88862C83.2931 9.88862 82.6088 9.96455 81.928 10.1164C81.2437 10.2683 80.6467 10.465 80.1335 10.7066C78.6288 11.5245 77.8781 12.6012 77.8781 13.9368C77.8781 14.7548 78.1854 15.4554 78.7998 16.0283C79.2432 16.4838 79.8577 16.8911 80.6432 17.2569C81.2926 17.5606 81.9769 17.8022 82.6926 17.9851C83.4083 18.168 84.0751 18.3336 84.6931 18.4855L85.3076 18.6235C85.4786 18.6857 85.8033 18.7754 86.2816 18.8962C86.7599 19.017 87.322 19.1999 87.9714 19.4415C88.6208 19.6831 89.3295 19.973 90.0976 20.3043C90.8656 20.639 91.6267 21.0325 92.3774 21.488C95.701 23.4414 97.3594 25.7295 97.3594 28.3697Z" fill="#00487F"/>
<path d="M127.65 5.61902V37.4699H121.499V24.2726H106.584V37.4664H100.436V5.61902H106.587V18.8129H121.502V5.61902H127.65Z" fill="#00487F"/>
<path d="M169.115 37.4669H162.349L159.581 32.0071L156.812 26.5474L149.533 12.2595L142.254 26.5474H151.582L154.351 32.0071H139.485L136.716 37.4669H129.95L146.146 5.61603H152.912L169.115 37.4669Z" fill="#00487F"/>
<path d="M177.574 11.0788V18.8129H190.953L192.489 24.2726H177.574V37.4664H171.423V5.61902H195.565V11.0788H177.574Z" fill="#00487F"/>
<path d="M204.276 37.4676H198.124V5.66504H204.276V37.4676Z" fill="#00487F"/>
<path d="M244.872 21.4979C244.872 23.258 244.589 24.9249 244.027 26.5021C243.462 28.0793 242.669 29.5357 241.643 30.8713L244.872 33.7841V41.5182L226.215 24.956V17.2219L237.184 26.9128C238.211 25.2735 238.72 23.472 238.72 21.4979C238.72 20.0104 238.413 18.6024 237.799 17.2668C237.184 15.9312 236.277 14.7336 235.083 13.6706C233.885 12.6077 232.537 11.7967 231.033 11.2376C229.528 10.6785 227.922 10.3955 226.215 10.3955C224.539 10.3955 222.95 10.675 221.449 11.2376C219.944 11.8001 218.597 12.6111 217.399 13.6706C216.202 14.7336 215.298 15.9312 214.683 17.2668C214.069 18.6024 213.761 20.0139 213.761 21.4979C213.761 22.9854 214.069 24.4038 214.683 25.7532C215.298 27.1026 216.202 28.3105 217.399 29.37C218.593 30.433 219.944 31.2371 221.449 31.7824C222.954 32.3277 224.542 32.6003 226.215 32.6003C226.658 32.6003 227.095 32.5762 227.52 32.5313C227.946 32.4864 228.365 32.4312 228.777 32.3725L233.648 36.6934C232.52 37.1179 231.333 37.4527 230.087 37.6943C228.84 37.9358 227.548 38.0566 226.218 38.0566C223.656 38.0566 221.236 37.6252 218.967 36.759C216.694 35.8962 214.721 34.7124 213.046 33.2112C211.37 31.7099 210.047 29.9498 209.073 27.9343C208.099 25.9189 207.613 23.7722 207.613 21.4979C207.613 19.2236 208.099 17.077 209.073 15.058C210.047 13.0425 211.37 11.2824 213.046 9.78117C214.718 8.27992 216.694 7.09616 218.967 6.23337C221.24 5.37058 223.656 4.93573 226.218 4.93573C228.816 4.93573 231.242 5.36713 233.498 6.23337C235.753 7.09616 237.725 8.27992 239.419 9.78117C241.112 11.2824 242.442 13.0425 243.416 15.058C244.383 17.077 244.872 19.2236 244.872 21.4979Z" fill="#00487F"/>
<defs>
<linearGradient id="paint0_linear_1_1228" x1="40.6004" y1="43.474" x2="42.7647" y2="8.66121" gradientUnits="userSpaceOnUse">
<stop stop-color="#8C6326"/>
<stop offset="1" stop-color="#E8C976"/>
</linearGradient>
</defs>
</svg>
