<svg width="24" height="24" viewBox="0 0 24 24" fill="none" xmlns="http://www.w3.org/2000/svg">
<rect width="24" height="24" fill="white"/>
<path d="M9 12H7C6.73478 12 6.48043 12.1054 6.29289 12.2929C6.10536 12.4804 6 12.7348 6 13C6 13.2652 6.10536 13.5196 6.29289 13.7071C6.48043 13.8947 6.73478 14 7 14H9C9.26522 14 9.51957 13.8947 9.70711 13.7071C9.89464 13.5196 10 13.2652 10 13C10 12.7348 9.89464 12.4804 9.70711 12.2929C9.51957 12.1054 9.26522 12 9 12ZM8 10H12C12.2652 10 12.5196 9.89465 12.7071 9.70711C12.8946 9.51958 13 9.26522 13 9.00001C13 8.73479 12.8946 8.48044 12.7071 8.2929C12.5196 8.10536 12.2652 8.00001 12 8.00001H8C7.73478 8.00001 7.48043 8.10536 7.29289 8.2929C7.10536 8.48044 7 8.73479 7 9.00001C7 9.26522 7.10536 9.51958 7.29289 9.70711C7.48043 9.89465 7.73478 10 8 10ZM9 16H7C6.73478 16 6.48043 16.1054 6.29289 16.2929C6.10536 16.4804 6 16.7348 6 17C6 17.2652 6.10536 17.5196 6.29289 17.7071C6.48043 17.8947 6.73478 18 7 18H9C9.26522 18 9.51957 17.8947 9.70711 17.7071C9.89464 17.5196 10 17.2652 10 17C10 16.7348 9.89464 16.4804 9.70711 16.2929C9.51957 16.1054 9.26522 16 9 16ZM21 12H18V3.00001C18.0007 2.8238 17.9548 2.65053 17.867 2.49775C17.7792 2.34498 17.6526 2.21811 17.5 2.13001C17.348 2.04224 17.1755 1.99603 17 1.99603C16.8245 1.99603 16.652 2.04224 16.5 2.13001L13.5 3.85001L10.5 2.13001C10.348 2.04224 10.1755 1.99603 10 1.99603C9.82446 1.99603 9.65202 2.04224 9.5 2.13001L6.5 3.85001L3.5 2.13001C3.34798 2.04224 3.17554 1.99603 3 1.99603C2.82446 1.99603 2.65202 2.04224 2.5 2.13001C2.3474 2.21811 2.22078 2.34498 2.13298 2.49775C2.04518 2.65053 1.9993 2.8238 2 3.00001V19C2 19.7957 2.31607 20.5587 2.87868 21.1213C3.44129 21.6839 4.20435 22 5 22H19C19.7956 22 20.5587 21.6839 21.1213 21.1213C21.6839 20.5587 22 19.7957 22 19V13C22 12.7348 21.8946 12.4804 21.7071 12.2929C21.5196 12.1054 21.2652 12 21 12ZM5 20C4.73478 20 4.48043 19.8947 4.29289 19.7071C4.10536 19.5196 4 19.2652 4 19V4.73001L6 5.87001C6.15434 5.95062 6.32588 5.99272 6.5 5.99272C6.67412 5.99272 6.84566 5.95062 7 5.87001L10 4.15001L13 5.87001C13.1543 5.95062 13.3259 5.99272 13.5 5.99272C13.6741 5.99272 13.8457 5.95062 14 5.87001L16 4.73001V19C16.0027 19.3412 16.0636 19.6793 16.18 20H5ZM20 19C20 19.2652 19.8946 19.5196 19.7071 19.7071C19.5196 19.8947 19.2652 20 19 20C18.7348 20 18.4804 19.8947 18.2929 19.7071C18.1054 19.5196 18 19.2652 18 19V14H20V19ZM13.56 16.17C13.5043 16.1322 13.4437 16.1019 13.38 16.08C13.3205 16.0496 13.2562 16.0293 13.19 16.02C13.0293 15.9878 12.8632 15.9956 12.7063 16.0427C12.5494 16.0898 12.4064 16.1747 12.29 16.29C12.1073 16.4816 12.0037 16.7352 12 17C11.9984 17.13 12.0222 17.2591 12.07 17.38C12.1244 17.5015 12.1987 17.6131 12.29 17.71C12.3872 17.7983 12.4988 17.8694 12.62 17.92C12.7397 17.9729 12.8691 18.0002 13 18.0002C13.1309 18.0002 13.2603 17.9729 13.38 17.92C13.5012 17.8694 13.6128 17.7983 13.71 17.71C13.8027 17.6166 13.876 17.5058 13.9258 17.3839C13.9755 17.2621 14.0008 17.1316 14 17C13.9963 16.7352 13.8927 16.4816 13.71 16.29C13.6625 16.247 13.6124 16.2069 13.56 16.17ZM13.7 12.29C13.5832 12.1763 13.4404 12.0928 13.2841 12.0469C13.1277 12.001 12.9624 11.994 12.8027 12.0265C12.643 12.0591 12.4937 12.1302 12.3677 12.2336C12.2418 12.337 12.143 12.4697 12.08 12.62C12.0178 12.7715 11.9937 12.936 12.0099 13.099C12.0261 13.2619 12.0821 13.4184 12.1729 13.5547C12.2638 13.691 12.3867 13.8029 12.5309 13.8805C12.6751 13.9582 12.8362 13.9992 13 14C13.2652 14 13.5196 13.8947 13.7071 13.7071C13.8946 13.5196 14 13.2652 14 13C13.9984 12.8693 13.9712 12.7402 13.92 12.62C13.8718 12.4952 13.7967 12.3825 13.7 12.29Z" fill="#1F1F1F"/>
</svg>
