<svg width="24" height="24" viewBox="0 0 24 24" fill="none" xmlns="http://www.w3.org/2000/svg">
<rect width="24" height="24" fill="white"/>
<path d="M9.49999 10.5H12C12.2652 10.5 12.5196 10.3947 12.7071 10.2071C12.8946 10.0196 13 9.76522 13 9.50001C13 9.23479 12.8946 8.98044 12.7071 8.7929C12.5196 8.60536 12.2652 8.50001 12 8.50001H11V8.00001C11 7.73479 10.8946 7.48044 10.7071 7.2929C10.5196 7.10536 10.2652 7.00001 9.99999 7.00001C9.73478 7.00001 9.48042 7.10536 9.29289 7.2929C9.10535 7.48044 8.99999 7.73479 8.99999 8.00001V8.55001C8.39242 8.67338 7.85235 9.01811 7.48465 9.51727C7.11694 10.0164 6.94783 10.6344 7.01014 11.2513C7.07244 11.8681 7.36173 12.4398 7.82183 12.8553C8.28193 13.2709 8.88002 13.5006 9.49999 13.5H10.5C10.6326 13.5 10.7598 13.5527 10.8535 13.6465C10.9473 13.7402 11 13.8674 11 14C11 14.1326 10.9473 14.2598 10.8535 14.3536C10.7598 14.4473 10.6326 14.5 10.5 14.5H7.99999C7.73478 14.5 7.48042 14.6054 7.29289 14.7929C7.10535 14.9804 6.99999 15.2348 6.99999 15.5C6.99999 15.7652 7.10535 16.0196 7.29289 16.2071C7.48042 16.3947 7.73478 16.5 7.99999 16.5H8.99999V17C8.99999 17.2652 9.10535 17.5196 9.29289 17.7071C9.48042 17.8947 9.73478 18 9.99999 18C10.2652 18 10.5196 17.8947 10.7071 17.7071C10.8946 17.5196 11 17.2652 11 17V16.45C11.6076 16.3266 12.1476 15.9819 12.5153 15.4827C12.883 14.9836 13.0522 14.3656 12.9898 13.7488C12.9275 13.1319 12.6383 12.5602 12.1782 12.1447C11.7181 11.7291 11.12 11.4994 10.5 11.5H9.49999C9.36738 11.5 9.24021 11.4473 9.14644 11.3536C9.05267 11.2598 8.99999 11.1326 8.99999 11C8.99999 10.8674 9.05267 10.7402 9.14644 10.6465C9.24021 10.5527 9.36738 10.5 9.49999 10.5ZM21 12H18V3.00001C18.0007 2.8238 17.9548 2.65053 17.867 2.49775C17.7792 2.34498 17.6526 2.21811 17.5 2.13001C17.348 2.04224 17.1755 1.99603 17 1.99603C16.8245 1.99603 16.652 2.04224 16.5 2.13001L13.5 3.85001L10.5 2.13001C10.348 2.04224 10.1755 1.99603 9.99999 1.99603C9.82446 1.99603 9.65201 2.04224 9.49999 2.13001L6.49999 3.85001L3.49999 2.13001C3.34797 2.04224 3.17553 1.99603 2.99999 1.99603C2.82446 1.99603 2.65201 2.04224 2.49999 2.13001C2.34739 2.21811 2.22077 2.34498 2.13297 2.49775C2.04517 2.65053 1.99929 2.8238 1.99999 3.00001V19C1.99999 19.7957 2.31606 20.5587 2.87867 21.1213C3.44128 21.6839 4.20434 22 4.99999 22H19C19.7956 22 20.5587 21.6839 21.1213 21.1213C21.6839 20.5587 22 19.7957 22 19V13C22 12.7348 21.8946 12.4804 21.7071 12.2929C21.5196 12.1054 21.2652 12 21 12ZM4.99999 20C4.73478 20 4.48042 19.8947 4.29289 19.7071C4.10535 19.5196 3.99999 19.2652 3.99999 19V4.73001L5.99999 5.87001C6.15433 5.95062 6.32587 5.99272 6.49999 5.99272C6.67411 5.99272 6.84565 5.95062 6.99999 5.87001L9.99999 4.15001L13 5.87001C13.1543 5.95062 13.3259 5.99272 13.5 5.99272C13.6741 5.99272 13.8457 5.95062 14 5.87001L16 4.73001V19C16.0027 19.3412 16.0636 19.6793 16.18 20H4.99999ZM20 19C20 19.2652 19.8946 19.5196 19.7071 19.7071C19.5196 19.8947 19.2652 20 19 20C18.7348 20 18.4804 19.8947 18.2929 19.7071C18.1053 19.5196 18 19.2652 18 19V14H20V19Z" fill="#1F1F1F"/>
</svg>
