<svg width="24" height="24" viewBox="0 0 24 24" fill="none" xmlns="http://www.w3.org/2000/svg">
<rect width="24" height="24" fill="white"/>
<path d="M8.51 12.4799C8.31222 12.4799 8.11888 12.5386 7.95443 12.6485C7.78998 12.7584 7.66181 12.9145 7.58612 13.0973C7.51043 13.28 7.49063 13.4811 7.52921 13.675C7.5678 13.869 7.66304 14.0472 7.80289 14.1871C7.94274 14.3269 8.12093 14.4221 8.31491 14.4607C8.50889 14.4993 8.70995 14.4795 8.89268 14.4038C9.07541 14.3281 9.23159 14.2 9.34147 14.0355C9.45135 13.8711 9.51 13.6777 9.51 13.4799C9.51 13.2147 9.40464 12.9604 9.2171 12.7728C9.02957 12.5853 8.77521 12.4799 8.51 12.4799ZM8.51 7.99995C8.31222 7.99995 8.11888 8.0586 7.95443 8.16848C7.78998 8.27836 7.66181 8.43454 7.58612 8.61726C7.51043 8.79999 7.49063 9.00106 7.52921 9.19504C7.5678 9.38902 7.66304 9.5672 7.80289 9.70705C7.94274 9.84691 8.12093 9.94215 8.31491 9.98073C8.50889 10.0193 8.70995 9.99951 8.89268 9.92383C9.07541 9.84814 9.23159 9.71997 9.34147 9.55552C9.45135 9.39107 9.51 9.19773 9.51 8.99995C9.51 8.73473 9.40464 8.48038 9.2171 8.29284C9.02957 8.1053 8.77521 7.99995 8.51 7.99995ZM12 9.99995C11.7348 9.99995 11.4804 10.1053 11.2929 10.2928C11.1054 10.4804 11 10.7347 11 10.9999V11.9999C11 12.2652 11.1054 12.5195 11.2929 12.7071C11.4804 12.8946 11.7348 12.9999 12 12.9999C12.2652 12.9999 12.5196 12.8946 12.7071 12.7071C12.8946 12.5195 13 12.2652 13 11.9999V10.9999C13 10.7347 12.8946 10.4804 12.7071 10.2928C12.5196 10.1053 12.2652 9.99995 12 9.99995ZM20.5 8.56995C20.155 8.37146 19.774 8.2436 19.3791 8.19381C18.9843 8.14402 18.5834 8.1733 18.2 8.27995C17.8009 8.38684 17.4293 8.57777 17.11 8.83995L5.51 2.12995C5.35798 2.04218 5.18553 1.99597 5.01 1.99597C4.83446 1.99597 4.66202 2.04218 4.51 2.12995C4.35553 2.21677 4.22691 2.34308 4.1373 2.49595C4.04769 2.64882 4.0003 2.82275 4 2.99995V16.1699C3.40985 16.369 2.89817 16.7503 2.53872 17.259C2.17927 17.7676 1.99063 18.3772 2 18.9999C1.99972 19.7819 2.30478 20.5331 2.85021 21.0935C3.39563 21.6538 4.13829 21.9791 4.92 21.9999H5.5C8.77673 21.9922 11.9931 21.1176 14.8225 19.465C17.6519 17.8123 19.9937 15.4403 21.61 12.5899C21.9833 11.9079 22.0772 11.1077 21.872 10.3577C21.6668 9.60783 21.1785 8.96687 20.51 8.56995H20.5ZM6 4.72995L15.89 10.4399C14.7928 12.0772 13.326 13.4334 11.608 14.3993C9.88999 15.3651 7.96896 15.9134 6 15.9999V4.72995ZM19.87 11.6099C18.3855 14.2256 16.2174 16.3882 13.598 17.8661C10.9786 19.3441 8.00648 20.0817 5 19.9999C4.73478 19.9999 4.48043 19.8946 4.29289 19.7071C4.10535 19.5195 4 19.2652 4 18.9999C3.99921 18.866 4.02537 18.7332 4.0769 18.6095C4.12844 18.4858 4.20431 18.3737 4.3 18.2799C4.48786 18.0989 4.73907 17.9984 5 17.9999H5.51C8.07771 17.9989 10.5991 17.316 12.8164 16.0211C15.0337 14.7263 16.8674 12.8658 18.13 10.6299C18.1907 10.5203 18.2736 10.4245 18.3735 10.3487C18.4734 10.2729 18.588 10.2188 18.71 10.1899C18.9621 10.1207 19.2314 10.153 19.46 10.2799C19.6894 10.4033 19.8617 10.6112 19.9401 10.8596C20.0186 11.108 19.997 11.3772 19.88 11.6099H19.87Z" fill="#1F1F1F"/>
</svg>
