<svg width="24" height="24" viewBox="0 0 24 24" fill="none" xmlns="http://www.w3.org/2000/svg">
<rect width="24" height="24" fill="white"/>
<path d="M9.87996 14.12L9.72996 14L9.54996 13.9L9.36996 13.85C9.2093 13.8178 9.0432 13.8256 8.88627 13.8727C8.72934 13.9197 8.58638 14.0047 8.46996 14.12C8.37104 14.2106 8.29555 14.3238 8.24996 14.45C8.19705 14.5697 8.16973 14.6991 8.16973 14.83C8.16973 14.9608 8.19705 15.0903 8.24996 15.21C8.35741 15.4503 8.54966 15.6425 8.78996 15.75C8.91018 15.8012 9.03928 15.8284 9.16996 15.83C9.30377 15.8275 9.43597 15.8003 9.55996 15.75C9.68184 15.7017 9.79123 15.6265 9.87996 15.53C9.9735 15.4387 10.0482 15.33 10.1 15.21C10.1478 15.089 10.1716 14.96 10.17 14.83C10.1733 14.6988 10.1459 14.5686 10.09 14.45C10.0441 14.3263 9.97256 14.2138 9.87996 14.12ZM3.50996 8.75996C3.64226 8.75941 3.77315 8.73261 3.89502 8.68111C4.0169 8.62962 4.12734 8.55445 4.21996 8.45996L8.45996 4.21996C8.64621 4.0326 8.75075 3.77914 8.75075 3.51496C8.75075 3.25077 8.64621 2.99732 8.45996 2.80996C8.2726 2.62371 8.01914 2.51917 7.75496 2.51917C7.49077 2.51917 7.23732 2.62371 7.04996 2.80996L2.80996 7.04996C2.62371 7.23732 2.51917 7.49077 2.51917 7.75496C2.51917 8.01914 2.62371 8.2726 2.80996 8.45996C2.99459 8.64837 3.24619 8.7562 3.50996 8.75996ZM21.19 15.54C21.0026 15.3537 20.7491 15.2492 20.485 15.2492C20.2208 15.2492 19.9673 15.3537 19.78 15.54L15.54 19.78C15.3995 19.9192 15.3036 20.097 15.2642 20.2908C15.2248 20.4846 15.2438 20.6858 15.3187 20.8688C15.3936 21.0518 15.5211 21.2085 15.6851 21.3191C15.8491 21.4297 16.0422 21.4891 16.24 21.49C16.3723 21.4894 16.5031 21.4626 16.625 21.4111C16.7469 21.3596 16.8573 21.2844 16.95 21.19L21.19 17C21.2899 16.9064 21.3695 16.7934 21.424 16.6678C21.4784 16.5422 21.5065 16.4068 21.5065 16.27C21.5065 16.1331 21.4784 15.9977 21.424 15.8721C21.3695 15.7466 21.2899 15.6335 21.19 15.54ZM21.36 9.87996C21.3619 9.08601 21.0491 8.32366 20.49 7.75996L16.24 3.50996C15.6677 2.96695 14.9089 2.66424 14.12 2.66424C13.3311 2.66424 12.5722 2.96695 12 3.50996L3.50996 12C2.94816 12.5625 2.6326 13.325 2.6326 14.12C2.6326 14.915 2.94816 15.6775 3.50996 16.24L7.75996 20.49C8.32246 21.0518 9.08496 21.3673 9.87996 21.3673C10.675 21.3673 11.4375 21.0518 12 20.49L20.49 12C21.0491 11.4363 21.3619 10.6739 21.36 9.87996ZM19.07 10.59L10.59 19.07C10.497 19.1637 10.3864 19.2381 10.2645 19.2888C10.1427 19.3396 10.012 19.3658 9.87996 19.3658C9.74795 19.3658 9.61724 19.3396 9.49538 19.2888C9.37352 19.2381 9.26292 19.1637 9.16996 19.07L4.92996 14.83C4.83623 14.737 4.76184 14.6264 4.71107 14.5045C4.6603 14.3827 4.63416 14.252 4.63416 14.12C4.63416 13.9879 4.6603 13.8572 4.71107 13.7354C4.76184 13.6135 4.83623 13.5029 4.92996 13.41L13.41 4.92996C13.5029 4.83623 13.6135 4.76184 13.7354 4.71107C13.8572 4.6603 13.9879 4.63416 14.12 4.63416C14.252 4.63416 14.3827 4.6603 14.5045 4.71107C14.6264 4.76184 14.737 4.83623 14.83 4.92996L19.07 9.16996C19.1637 9.26292 19.2381 9.37352 19.2888 9.49538C19.3396 9.61724 19.3658 9.74795 19.3658 9.87996C19.3658 10.012 19.3396 10.1427 19.2888 10.2645C19.2381 10.3864 19.1637 10.497 19.07 10.59Z" fill="#1F1F1F"/>
</svg>
