<svg width="24" height="24" viewBox="0 0 24 24" fill="none" xmlns="http://www.w3.org/2000/svg">
<rect width="24" height="24" fill="white"/>
<path d="M6.91998 5.50994L3.70998 2.28994C3.61675 2.1967 3.50606 2.12274 3.38423 2.07228C3.26241 2.02182 3.13184 1.99585 2.99998 1.99585C2.86813 1.99585 2.73756 2.02182 2.61574 2.07228C2.49391 2.12274 2.38322 2.1967 2.28998 2.28994C2.10168 2.47824 1.99589 2.73364 1.99589 2.99994C1.99589 3.26624 2.10168 3.52164 2.28998 3.70994L4.55998 5.99994C3.40695 6.65542 2.34461 7.45891 1.39998 8.38994C1.21373 8.5773 1.10919 8.83076 1.10919 9.09494C1.10919 9.35913 1.21373 9.61258 1.39998 9.79994C1.4926 9.89443 1.60304 9.9696 1.72492 10.0211C1.84679 10.0726 1.97768 10.0994 2.10998 10.0999C2.37232 10.0988 2.62372 9.99469 2.80998 9.80994C3.76293 8.86491 4.85574 8.07228 6.04998 7.45994L7.53998 8.99994C6.30072 9.54164 5.17445 10.3117 4.21998 11.2699C4.11599 11.3603 4.0318 11.4713 3.9727 11.5957C3.9136 11.7202 3.88087 11.8556 3.87655 11.9933C3.87223 12.131 3.89642 12.2682 3.9476 12.3961C3.99879 12.524 4.07586 12.64 4.17398 12.7367C4.27211 12.8335 4.38917 12.9089 4.51781 12.9583C4.64646 13.0076 4.78393 13.0299 4.92158 13.0236C5.05923 13.0173 5.1941 12.9827 5.31773 12.9218C5.44135 12.861 5.55107 12.7752 5.63998 12.6699C6.60955 11.7047 7.79082 10.9788 9.08998 10.5499L10.71 12.1599C9.32366 12.4267 8.04893 13.1024 7.04998 14.0999C6.94599 14.1903 6.8618 14.3013 6.8027 14.4257C6.7436 14.5502 6.71087 14.6856 6.70655 14.8233C6.70223 14.961 6.72642 15.0982 6.7776 15.2261C6.82879 15.354 6.90586 15.47 7.00398 15.5667C7.10211 15.6635 7.21917 15.7389 7.34781 15.7883C7.47646 15.8376 7.61393 15.8599 7.75158 15.8536C7.88923 15.8473 8.0241 15.8127 8.14773 15.7518C8.27135 15.691 8.38107 15.6052 8.46999 15.4999C8.93069 15.0299 9.47967 14.6554 10.0854 14.398C10.6912 14.1406 11.3418 14.0053 12 13.9999C12.211 14.0005 12.4216 14.0172 12.63 14.0499L20.29 21.7099C20.3829 21.8037 20.4935 21.8781 20.6154 21.9288C20.7373 21.9796 20.868 22.0057 21 22.0057C21.132 22.0057 21.2627 21.9796 21.3846 21.9288C21.5064 21.8781 21.617 21.8037 21.71 21.7099C21.8037 21.617 21.8781 21.5064 21.9289 21.3845C21.9796 21.2627 22.0058 21.132 22.0058 20.9999C22.0058 20.8679 21.9796 20.7372 21.9289 20.6154C21.8781 20.4935 21.8037 20.3829 21.71 20.2899L6.91998 5.50994ZM12 15.9999C11.4066 15.9999 10.8266 16.1759 10.3333 16.5055C9.83993 16.8352 9.45541 17.3037 9.22835 17.8519C9.00128 18.4001 8.94187 19.0033 9.05763 19.5852C9.17338 20.1672 9.45911 20.7017 9.87866 21.1213C10.2982 21.5408 10.8328 21.8265 11.4147 21.9423C11.9967 22.0581 12.5999 21.9986 13.148 21.7716C13.6962 21.5445 14.1647 21.16 14.4944 20.6667C14.824 20.1733 15 19.5933 15 18.9999C15 18.2043 14.6839 17.4412 14.1213 16.8786C13.5587 16.316 12.7956 15.9999 12 15.9999ZM12 19.9999C11.8022 19.9999 11.6089 19.9413 11.4444 19.8314C11.28 19.7215 11.1518 19.5653 11.0761 19.3826C11.0004 19.1999 10.9806 18.9988 11.0192 18.8048C11.0578 18.6109 11.153 18.4327 11.2929 18.2928C11.4327 18.153 11.6109 18.0577 11.8049 18.0192C11.9989 17.9806 12.1999 18.0004 12.3827 18.0761C12.5654 18.1517 12.7216 18.2799 12.8315 18.4444C12.9413 18.6088 13 18.8022 13 18.9999C13 19.2652 12.8946 19.5195 12.7071 19.707C12.5196 19.8946 12.2652 19.9999 12 19.9999ZM22.61 8.38994C21.012 6.79336 19.074 5.57831 16.9408 4.83548C14.8075 4.09264 12.534 3.84121 10.29 4.09994C10.1587 4.11439 10.0315 4.15456 9.91567 4.21816C9.79988 4.28176 9.69774 4.36754 9.6151 4.47062C9.44819 4.67878 9.37081 4.94472 9.39998 5.20994C9.42916 5.47516 9.56249 5.71792 9.77066 5.88483C9.97882 6.05174 10.2448 6.12912 10.51 6.09994C12.456 5.87785 14.427 6.09595 16.2773 6.73811C18.1276 7.38028 19.81 8.43009 21.2 9.80994C21.3883 9.99692 21.6432 10.1014 21.9085 10.1005C22.1739 10.0996 22.428 9.99325 22.615 9.80494C22.802 9.61664 22.9065 9.36177 22.9055 9.09641C22.9046 8.83104 22.7983 8.57692 22.61 8.38994ZM18.36 12.6299C18.5501 12.7952 18.7956 12.8826 19.0474 12.8748C19.2992 12.8669 19.5387 12.7642 19.7181 12.5873C19.8975 12.4105 20.0036 12.1724 20.015 11.9208C20.0265 11.6691 19.9426 11.4224 19.78 11.2299C18.4442 9.87873 16.7742 8.9057 14.94 8.40994C14.8093 8.35947 14.6695 8.33701 14.5296 8.34403C14.3897 8.35105 14.2528 8.38739 14.1278 8.45069C14.0028 8.51399 13.8926 8.60284 13.8041 8.71148C13.7157 8.82013 13.6511 8.94614 13.6144 9.08136C13.5778 9.21657 13.57 9.35798 13.5915 9.4964C13.6131 9.63483 13.6634 9.76719 13.7394 9.8849C13.8153 10.0026 13.9152 10.1031 14.0324 10.1797C14.1496 10.2564 14.2817 10.3076 14.42 10.3299C15.9101 10.743 17.2677 11.5354 18.36 12.6299Z" fill="#1F1F1F"/>
</svg>
