<svg width="24" height="24" viewBox="0 0 24 24" fill="none" xmlns="http://www.w3.org/2000/svg">
<rect width="24" height="24" fill="white"/>
<path d="M22 11C21.9957 10.9468 21.9957 10.8932 22 10.84C22 10.56 21.92 10.28 21.87 10C21.6871 9.17151 21.3946 8.37112 21 7.62C20.3264 6.24172 19.3447 5.03691 18.1308 4.0988C16.917 3.16068 15.5036 2.51441 14 2.21L13.16 2.08H13H12.71H12.63L12 2C11.66 2 11.32 2 11 2H10.84L10 2.2C8.08006 2.59369 6.31812 3.54289 4.93316 4.92964C3.54819 6.31639 2.60125 8.07954 2.21002 10C2.16002 10.28 2.12002 10.56 2.08002 10.84C2.08429 10.8932 2.08429 10.9468 2.08002 11C2.08002 11.33 2.08002 11.67 2.08002 12C2.08002 12.33 2.08002 12.68 2.08002 13C2.08429 13.0532 2.08429 13.1068 2.08002 13.16C2.08002 13.44 2.16002 13.72 2.21002 14C2.36748 14.8246 2.63311 15.6249 3.00002 16.38C3.67366 17.7583 4.65538 18.9631 5.86921 19.9012C7.08304 20.8393 8.49643 21.4856 10 21.79L10.84 21.92L11 22H11.34H11.48C11.66 22 11.83 22 12.01 22C12.35 22 12.69 22 13.01 21.95H13.17L14 21.8C15.92 21.4063 17.6819 20.4571 19.0669 19.0704C20.4518 17.6836 21.3988 15.9205 21.79 14C21.84 13.72 21.88 13.44 21.92 13.16C21.9419 13.1044 21.9686 13.0508 22 13C22 12.67 22.05 12.33 22.05 12C22.05 11.67 22 11.32 22 11ZM13.16 4.1L13.66 4.17C15.4678 4.55587 17.0862 5.55586 18.24 7H11.42L13.16 4.1ZM10.42 4.18L10.82 4.12L7.38002 10L5.70002 7.08C6.86364 5.58833 8.51824 4.5573 10.37 4.17L10.42 4.18ZM4.59002 15C4.40932 14.5568 4.26875 14.0983 4.17002 13.63C4.17002 13.41 4.09002 13.18 4.07002 12.95C4.0652 12.9101 4.0652 12.8699 4.07002 12.83C4.01668 12.2913 4.01668 11.7487 4.07002 11.21C4.0652 11.1701 4.0652 11.1299 4.07002 11.09C4.07002 10.86 4.13002 10.63 4.17002 10.41C4.25799 9.96303 4.38514 9.52467 4.55002 9.1L8.00002 15H4.59002ZM10.89 19.91L10.39 19.84C8.56271 19.4623 6.92492 18.4577 5.76002 17H12.58L10.89 19.91ZM10.27 15L8.54002 12L10.27 9H13.73L15.46 12L13.73 15H10.27ZM13.63 19.83L13.23 19.89L16.62 14L18.3 16.92C17.1364 18.4117 15.4818 19.4427 13.63 19.83ZM19.96 12.83C19.9648 12.8699 19.9648 12.9101 19.96 12.95C19.96 13.18 19.9 13.41 19.86 13.63C19.7698 14.0634 19.6427 14.4883 19.48 14.9L16 9H19.37C19.5507 9.44318 19.6913 9.90169 19.79 10.37C19.79 10.59 19.87 10.82 19.89 11.05C19.8948 11.0899 19.8948 11.1301 19.89 11.17C19.9434 11.7087 19.9434 12.2513 19.89 12.79L19.96 12.83Z" fill="#1F1F1F"/>
</svg>
