<svg width="24" height="24" viewBox="0 0 24 24" fill="none" xmlns="http://www.w3.org/2000/svg">
<rect width="24" height="24" fill="white"/>
<path d="M21.85 17.47L16.85 9.46999C16.7603 9.32528 16.6352 9.20586 16.4865 9.12305C16.3377 9.04024 16.1703 8.99677 16 8.99677C15.8298 8.99677 15.6624 9.04024 15.5136 9.12305C15.3649 9.20586 15.2397 9.32528 15.15 9.46999L14.15 11.1L10.86 5.49999C10.7715 5.35077 10.6456 5.22715 10.4949 5.14129C10.3441 5.05543 10.1735 5.01028 10 5.01028C9.82651 5.01028 9.65598 5.05543 9.5052 5.14129C9.35442 5.22715 9.22857 5.35077 9.14003 5.49999L2.14003 17.5C2.05251 17.6516 2.00631 17.8235 2.00604 17.9985C2.00578 18.1735 2.05146 18.3456 2.13851 18.4974C2.22557 18.6492 2.35095 18.7756 2.50214 18.8638C2.65332 18.952 2.825 18.9989 3.00003 19H21C21.1787 19.0003 21.3542 18.9528 21.5083 18.8624C21.6624 18.7719 21.7894 18.6418 21.8762 18.4856C21.963 18.3294 22.0063 18.1529 22.0017 17.9742C21.9971 17.7956 21.9447 17.6215 21.85 17.47ZM10.45 17H4.74003L10 7.99999L12.93 13L10.45 17ZM12.8 17L15 13.57L16 11.89L19.2 17H12.8Z" fill="#1F1F1F"/>
</svg>
