<svg width="24" height="24" viewBox="0 0 24 24" fill="none" xmlns="http://www.w3.org/2000/svg">
<rect width="24" height="24" fill="white"/>
<path d="M12 2C10.4385 2.00113 8.89891 2.36793 7.50462 3.07104C6.11033 3.77414 4.90008 4.79399 3.9708 6.04891C3.04151 7.30383 2.41903 8.75894 2.15321 10.2977C1.88739 11.8364 1.98561 13.416 2.44002 14.91C2.43423 14.9431 2.43423 14.9769 2.44002 15.01C2.81679 16.2218 3.42464 17.3493 4.23002 18.33L2.23002 20.33C2.09126 20.4706 1.99727 20.6492 1.95989 20.8432C1.92252 21.0372 1.94344 21.2379 2.02002 21.42C2.10496 21.6049 2.24429 21.7595 2.4194 21.8631C2.5945 21.9668 2.79706 22.0145 3.00002 22H12C14.0872 21.9985 16.1215 21.3439 17.818 20.128C19.5145 18.9122 20.788 17.196 21.46 15.22V15.14C21.8085 14.1294 21.9909 13.069 22 12C22 10.6868 21.7414 9.38642 21.2388 8.17317C20.7363 6.95991 19.9997 5.85752 19.0711 4.92893C18.1425 4.00035 17.0401 3.26375 15.8269 2.7612C14.6136 2.25866 13.3132 2 12 2ZM12 20H5.41002L5.71002 19.71L14.12 11.29C14.3069 11.1068 14.5583 11.0041 14.82 11.0041C15.0818 11.0041 15.3331 11.1068 15.52 11.29L19.14 14.89L19.37 15.11C18.7585 16.5594 17.7331 17.7964 16.4223 18.6661C15.1114 19.5359 13.5732 19.9999 12 20ZM4.54002 14.87L6.12002 13.29C6.30738 13.1037 6.56083 12.9992 6.82502 12.9992C7.08921 12.9992 7.34266 13.1037 7.53002 13.29L8.40002 14.16L5.68002 16.9C5.19894 16.2853 4.81451 15.6007 4.54002 14.87ZM19.95 12.87L16.95 9.87C16.3875 9.3082 15.625 8.99264 14.83 8.99264C14.035 8.99264 13.2725 9.3082 12.71 9.87L9.82002 12.76L8.94002 11.89C8.37793 11.3312 7.61758 11.0176 6.82502 11.0176C6.03246 11.0176 5.27211 11.3312 4.71002 11.89L4.00002 12.56C3.99006 12.3735 3.99006 12.1865 4.00002 12C4.00002 9.87827 4.84288 7.84344 6.34317 6.34315C7.84346 4.84285 9.87829 4 12 4C14.1218 4 16.1566 4.84285 17.6569 6.34315C19.1572 7.84344 20 9.87827 20 12C20.0149 12.2865 20.0149 12.5735 20 12.86L19.95 12.87Z" fill="#1F1F1F"/>
</svg>
