<svg width="24" height="24" viewBox="0 0 24 24" fill="none" xmlns="http://www.w3.org/2000/svg">
<rect width="24" height="24" fill="white"/>
<path d="M6.56999 12C6.7784 11.9987 6.98118 11.9322 7.14999 11.81L8.76999 10.65C9.35245 10.2342 9.82885 9.68708 10.1607 9.05298C10.4925 8.41889 10.6704 7.7156 10.68 7V3.63C10.679 3.4823 10.6453 3.33664 10.5814 3.2035C10.5174 3.07037 10.4247 2.95306 10.31 2.86C10.1938 2.76602 10.0581 2.69928 9.91269 2.66467C9.76733 2.63006 9.61605 2.62846 9.46999 2.66C9.06941 2.74309 8.65607 2.74337 8.25538 2.66083C7.85469 2.57828 7.47511 2.41465 7.13999 2.18C6.9726 2.06388 6.77373 2.00165 6.56999 2.00165C6.36626 2.00165 6.16739 2.06388 5.99999 2.18C5.66487 2.41465 5.2853 2.57828 4.8846 2.66083C4.48391 2.74337 4.07057 2.74309 3.66999 2.66C3.52302 2.62997 3.37117 2.63339 3.22569 2.67001C3.08022 2.70662 2.94485 2.7755 2.8296 2.87154C2.71436 2.96757 2.6222 3.0883 2.55995 3.22479C2.4977 3.36128 2.46696 3.51002 2.46999 3.66V7C2.46978 7.72336 2.64203 8.43634 2.97246 9.07982C3.30289 9.72329 3.78198 10.2787 4.36999 10.7L5.99999 11.81C6.16409 11.934 6.36432 12.0007 6.56999 12ZM4.45999 7V4.72C5.19447 4.68907 5.91387 4.50155 6.56999 4.17C7.22568 4.50272 7.94533 4.6903 8.67999 4.72V7C8.66654 7.39301 8.56308 7.7777 8.37757 8.12443C8.19207 8.47117 7.92947 8.77072 7.60999 9L6.60999 9.74L5.52999 9C5.21052 8.77072 4.94792 8.47117 4.76241 8.12443C4.57691 7.7777 4.47345 7.39301 4.45999 7ZM18.54 6H13.54C13.2748 6 13.0204 6.10536 12.8329 6.2929C12.6453 6.48043 12.54 6.73479 12.54 7C12.54 7.26522 12.6453 7.51957 12.8329 7.70711C13.0204 7.89465 13.2748 8 13.54 8H18.54C18.8052 8 19.0596 8.10536 19.2471 8.2929C19.4346 8.48043 19.54 8.73479 19.54 9V18.72L18 17.27C17.9104 17.1818 17.8041 17.1125 17.6873 17.0661C17.5705 17.0198 17.4456 16.9973 17.32 17H8.53999C8.27478 17 8.02042 16.8946 7.83289 16.7071C7.64535 16.5196 7.53999 16.2652 7.53999 16V15C7.53999 14.7348 7.43464 14.4804 7.2471 14.2929C7.05956 14.1054 6.80521 14 6.53999 14C6.27478 14 6.02042 14.1054 5.83289 14.2929C5.64535 14.4804 5.53999 14.7348 5.53999 15V16C5.53999 16.7957 5.85606 17.5587 6.41867 18.1213C6.98128 18.6839 7.74434 19 8.53999 19H16.9L19.9 21.73C20.0819 21.9003 20.3208 21.9966 20.57 22C20.7104 21.9986 20.8494 21.9715 20.98 21.92C21.157 21.8404 21.307 21.7111 21.4118 21.5477C21.5166 21.3844 21.5715 21.1941 21.57 21V9C21.57 8.6035 21.4914 8.21093 21.3388 7.84498C21.1862 7.47904 20.9625 7.14698 20.6807 6.86801C20.399 6.58903 20.0647 6.36868 19.6973 6.2197C19.3298 6.07071 18.9365 5.99604 18.54 6Z" fill="#1F1F1F"/>
</svg>
