<svg width="24" height="24" viewBox="0 0 24 24" fill="none" xmlns="http://www.w3.org/2000/svg">
<rect width="24" height="24" fill="white"/>
<path d="M15 1.99999C13.363 2.00131 11.7782 2.57631 10.5213 3.625C9.26431 4.67369 8.41463 6.12974 8.11997 7.73999C7.2584 8.20481 6.52365 8.87338 5.97981 9.68739C5.43598 10.5014 5.09958 11.4361 4.99997 12.41C4.25572 12.7374 3.60253 13.2413 3.09701 13.8781C2.5915 14.515 2.24892 15.2655 2.09896 16.0646C1.949 16.8637 1.99619 17.6874 2.23643 18.4641C2.47667 19.2409 2.90272 19.9474 3.47765 20.5223C4.05258 21.0972 4.75905 21.5233 5.53582 21.7635C6.31259 22.0038 7.13624 22.051 7.93536 21.901C8.73449 21.751 9.48499 21.4085 10.1218 20.9029C10.7586 20.3974 11.2626 19.7442 11.59 19C12.561 18.9035 13.4938 18.5717 14.3076 18.0332C15.1213 17.4948 15.7915 16.766 16.26 15.91C18.0109 15.6291 19.5899 14.6942 20.6782 13.294C21.7664 11.8939 22.2827 10.1329 22.1227 8.36686C21.9627 6.60079 21.1384 4.96125 19.8163 3.77945C18.4942 2.59765 16.7729 1.96167 15 1.99999ZM9.99997 17.43C9.99997 17.53 9.99997 17.63 9.92997 17.74C9.8008 18.2547 9.53742 18.7259 9.1667 19.1056C8.79597 19.4853 8.33117 19.7598 7.8197 19.9013C7.30823 20.0427 6.7684 20.0459 6.25528 19.9106C5.74216 19.7753 5.27411 19.5063 4.89888 19.1311C4.52365 18.7558 4.25466 18.2878 4.11935 17.7747C3.98405 17.2616 3.98727 16.7217 4.12869 16.2103C4.27011 15.6988 4.54467 15.234 4.92436 14.8633C5.30404 14.4925 5.77527 14.2292 6.28997 14.1L6.56997 14C7.03955 13.9122 7.52344 13.9402 7.97976 14.0816C8.43608 14.2229 8.8511 14.4733 9.18889 14.8111C9.52667 15.1489 9.77707 15.5639 9.91839 16.0202C10.0597 16.4765 10.0877 16.9604 9.99997 17.43ZM15 13.76C14.9868 13.8242 14.9701 13.8876 14.95 13.95C14.907 14.134 14.8502 14.3145 14.78 14.49C14.5497 15.0738 14.1854 15.5952 13.7163 16.0121C13.2473 16.4291 12.6867 16.7298 12.08 16.89C12.08 16.71 12.08 16.54 12.02 16.36C11.96 16.18 12.02 16.09 12.02 15.96C12.02 15.83 11.9 15.58 11.84 15.39C11.78 15.2 11.77 15.15 11.72 15.03C11.6338 14.8395 11.5335 14.6556 11.42 14.48C11.42 14.39 11.33 14.29 11.27 14.2C11.0921 13.9393 10.8913 13.695 10.67 13.47L10.47 13.3C10.3023 13.1459 10.1253 13.0023 9.93997 12.87C9.83102 12.7991 9.71743 12.7356 9.59997 12.68C9.43992 12.5782 9.27283 12.488 9.09997 12.41C8.97081 12.3547 8.83694 12.3112 8.69997 12.28C8.53161 12.2117 8.35762 12.1581 8.17997 12.12C8.03997 12.12 7.88997 12.12 7.73997 12.06L7.12997 12C7.28916 11.3943 7.58835 10.8344 8.00347 10.3654C8.41859 9.89644 8.93803 9.53151 9.51997 9.29999C9.69148 9.22836 9.86879 9.17149 10.05 9.12999L10.25 9.07999C10.4966 9.02812 10.7479 9.00131 11 8.99999C12.0608 8.99999 13.0783 9.42142 13.8284 10.1716C14.5785 10.9217 15 11.9391 15 13C14.9986 13.2554 14.9718 13.5099 14.92 13.76H15ZM17 13.6C17 13.4 17 13.2 17 13C17 11.4087 16.3678 9.88257 15.2426 8.75735C14.1174 7.63213 12.5913 6.99999 11 6.99999C10.8 6.99999 10.6 6.99999 10.4 6.99999C10.7296 6.25854 11.2347 5.60845 11.8717 5.10584C12.5087 4.60323 13.2585 4.2632 14.0563 4.11511C14.8541 3.96702 15.6759 4.01531 16.4509 4.25582C17.2258 4.49634 17.9306 4.92184 18.5044 5.4956C19.0781 6.06936 19.5036 6.77413 19.7441 7.54909C19.9846 8.32404 20.0329 9.14589 19.8848 9.94368C19.7368 10.7415 19.3967 11.4912 18.8941 12.1282C18.3915 12.7652 17.7414 13.2704 17 13.6Z" fill="#1F1F1F"/>
</svg>
